<svg xmlns="http://www.w3.org/2000/svg" xmlns:xlink="http://www.w3.org/1999/xlink" width="1920" zoomAndPan="magnify" viewBox="0 0 1440 809.999993" height="1080" preserveAspectRatio="xMidYMid meet" version="1.0"><defs><g/><clipPath id="fb76a51e8e"><path d="M 0.761719 0.0390625 L 801.160156 0.0390625 L 801.160156 220.601562 L 0.761719 220.601562 Z M 0.761719 0.0390625 " clip-rule="nonzero"/></clipPath><clipPath id="064a767b72"><path d="M 0.761719 0.0390625 L 565 0.0390625 L 565 220.601562 L 0.761719 220.601562 Z M 0.761719 0.0390625 " clip-rule="nonzero"/></clipPath><clipPath id="2e2ba36146"><rect x="0" width="565" y="0" height="221"/></clipPath><clipPath id="1340c6b467"><path d="M 551.457031 60 L 801.046875 60 L 801.046875 209.917969 L 551.457031 209.917969 Z M 551.457031 60 " clip-rule="nonzero"/></clipPath><clipPath id="9a3a6d3e87"><path d="M 732 13.40625 L 768 13.40625 L 768 49 L 732 49 Z M 732 13.40625 " clip-rule="nonzero"/></clipPath><clipPath id="3a50295d9f"><rect x="0" width="802" y="0" height="221"/></clipPath><clipPath id="c763200360"><rect x="0" width="802" y="0" height="221"/></clipPath></defs><g transform="matrix(1, 0, 0, 1, 323, 293)"><g clip-path="url(#c763200360)"><g clip-path="url(#fb76a51e8e)"><g transform="matrix(1, 0, 0, 1, 0.000000000000056843, 0.000000000000056843)"><g clip-path="url(#3a50295d9f)"><g clip-path="url(#064a767b72)"><g transform="matrix(1, 0, 0, 1, 0.000000000000056843, 0.000000000000056843)"><g clip-path="url(#2e2ba36146)"><g fill="#ffffff" fill-opacity="1"><g transform="translate(2.394025, 165.502775)"><g><path d="M 76.921875 -24.375 L 29.09375 -24.375 L 20.296875 0 L 5.1875 0 L 44.828125 -109 L 61.34375 -109 L 100.828125 0 L 85.734375 0 Z M 72.828125 -36.015625 L 53.015625 -91.390625 L 33.1875 -36.015625 Z M 72.828125 -36.015625 "/></g></g></g><g fill="#ffffff" fill-opacity="1"><g transform="translate(108.408847, 165.502775)"><g><path d="M 95.171875 -77.859375 C 92.128906 -84.253906 87.722656 -89.207031 81.953125 -92.71875 C 76.179688 -96.238281 69.46875 -98 61.8125 -98 C 54.15625 -98 47.257812 -96.238281 41.125 -92.71875 C 35 -89.207031 30.175781 -84.175781 26.65625 -77.625 C 23.144531 -71.070312 21.390625 -63.492188 21.390625 -54.890625 C 21.390625 -46.296875 23.144531 -38.75 26.65625 -32.25 C 30.175781 -25.75 35 -20.738281 41.125 -17.21875 C 47.257812 -13.707031 54.15625 -11.953125 61.8125 -11.953125 C 72.507812 -11.953125 81.316406 -15.148438 88.234375 -21.546875 C 95.160156 -27.941406 99.203125 -36.59375 100.359375 -47.5 L 56.625 -47.5 L 56.625 -59.140625 L 115.609375 -59.140625 L 115.609375 -48.140625 C 114.773438 -39.117188 111.945312 -30.859375 107.125 -23.359375 C 102.300781 -15.859375 95.953125 -9.929688 88.078125 -5.578125 C 80.210938 -1.234375 71.457031 0.9375 61.8125 0.9375 C 51.644531 0.9375 42.363281 -1.445312 33.96875 -6.21875 C 25.582031 -10.988281 18.953125 -17.617188 14.078125 -26.109375 C 9.203125 -34.609375 6.765625 -44.203125 6.765625 -54.890625 C 6.765625 -65.585938 9.203125 -75.207031 14.078125 -83.75 C 18.953125 -92.300781 25.582031 -98.960938 33.96875 -103.734375 C 42.363281 -108.503906 51.644531 -110.890625 61.8125 -110.890625 C 73.457031 -110.890625 83.757812 -108.003906 92.71875 -102.234375 C 101.6875 -96.472656 108.21875 -88.347656 112.3125 -77.859375 Z M 95.171875 -77.859375 "/></g></g></g><g fill="#ffffff" fill-opacity="1"><g transform="translate(230.782024, 165.502775)"><g><path d="M 26.421875 -109.640625 L 26.421875 0 L 12.109375 0 L 12.109375 -109.640625 Z M 26.421875 -109.640625 "/></g></g></g><g fill="#ffffff" fill-opacity="1"><g transform="translate(269.475869, 165.502775)"><g><path d="M 79.59375 -109.640625 L 79.59375 -98 L 49.703125 -98 L 49.703125 0 L 35.390625 0 L 35.390625 -98 L 5.34375 -98 L 5.34375 -109.640625 Z M 79.59375 -109.640625 "/></g></g></g><g fill="#ffffff" fill-opacity="1"><g transform="translate(354.570847, 165.502775)"><g><path d="M 79.59375 -109.640625 L 79.59375 -98 L 49.703125 -98 L 49.703125 0 L 35.390625 0 L 35.390625 -98 L 5.34375 -98 L 5.34375 -109.640625 Z M 79.59375 -109.640625 "/></g></g></g><g fill="#ffffff" fill-opacity="1"><g transform="translate(439.66585, 165.502775)"><g><path d="M 61.8125 1.09375 C 51.644531 1.09375 42.363281 -1.289062 33.96875 -6.0625 C 25.582031 -10.832031 18.953125 -17.488281 14.078125 -26.03125 C 9.203125 -34.582031 6.765625 -44.203125 6.765625 -54.890625 C 6.765625 -65.585938 9.203125 -75.207031 14.078125 -83.75 C 18.953125 -92.300781 25.582031 -98.960938 33.96875 -103.734375 C 42.363281 -108.503906 51.644531 -110.890625 61.8125 -110.890625 C 72.09375 -110.890625 81.425781 -108.503906 89.8125 -103.734375 C 98.207031 -98.960938 104.816406 -92.328125 109.640625 -83.828125 C 114.460938 -75.335938 116.875 -65.691406 116.875 -54.890625 C 116.875 -44.085938 114.460938 -34.441406 109.640625 -25.953125 C 104.816406 -17.460938 98.207031 -10.832031 89.8125 -6.0625 C 81.425781 -1.289062 72.09375 1.09375 61.8125 1.09375 Z M 61.8125 -11.328125 C 69.46875 -11.328125 76.363281 -13.109375 82.5 -16.671875 C 88.632812 -20.234375 93.457031 -25.316406 96.96875 -31.921875 C 100.488281 -38.535156 102.25 -46.191406 102.25 -54.890625 C 102.25 -63.703125 100.488281 -71.382812 96.96875 -77.9375 C 93.457031 -84.488281 88.660156 -89.546875 82.578125 -93.109375 C 76.492188 -96.679688 69.570312 -98.46875 61.8125 -98.46875 C 54.050781 -98.46875 47.128906 -96.679688 41.046875 -93.109375 C 34.972656 -89.546875 30.175781 -84.488281 26.65625 -77.9375 C 23.144531 -71.382812 21.390625 -63.703125 21.390625 -54.890625 C 21.390625 -46.191406 23.144531 -38.535156 26.65625 -31.921875 C 30.175781 -25.316406 35 -20.234375 41.125 -16.671875 C 47.257812 -13.109375 54.15625 -11.328125 61.8125 -11.328125 Z M 61.8125 -11.328125 "/></g></g></g></g></g></g><g clip-path="url(#1340c6b467)"><path fill="#ffffff" d="M 551.453125 209.773438 L 698.121094 86.722656 L 597.550781 60.40625 L 801.046875 60.40625 Z M 551.453125 209.773438 " fill-opacity="1" fill-rule="nonzero"/></g><path fill="#ffffff" d="M 763.554688 159.050781 L 677.09375 148.835938 L 721.785156 122.070312 Z M 763.554688 159.050781 " fill-opacity="1" fill-rule="nonzero"/><g clip-path="url(#9a3a6d3e87)"><path fill="#ffffff" d="M 732.355469 13.550781 L 767.039062 13.550781 L 767.039062 48.171875 L 732.355469 48.171875 Z M 732.355469 13.550781 " fill-opacity="1" fill-rule="nonzero"/></g></g></g></g></g></g></svg>